<mxfile host="app.diagrams.net" modified="2024-06-19T15:11:16.907Z" agent="Mozilla/5.0 (Windows NT 10.0; Win64; x64) AppleWebKit/537.36 (KHTML, like Gecko) Chrome/126.0.0.0 Safari/537.36" version="24.5.5" etag="cNcQqasIXhMKmIfEFPye" type="device">
  <diagram id="YeBsLe0wz5kqz-9HFI_q" name="Page-1">
    <mxGraphModel dx="814" dy="459" grid="1" gridSize="10" guides="1" tooltips="1" connect="1" arrows="1" fold="1" page="1" pageScale="1" pageWidth="850" pageHeight="1100" math="0" shadow="0">
      <root>
        <mxCell id="0" />
        <mxCell id="1" parent="0" />
        <mxCell id="2" value="" style="shape=process;whiteSpace=wrap;html=1;backgroundOutline=1;size=0.009009009009009009;" parent="1" vertex="1">
          <mxGeometry x="300" y="220" width="1110" height="470" as="geometry" />
        </mxCell>
        <mxCell id="3" value="&amp;lt;&amp;lt;service&amp;gt;&amp;gt;&lt;br&gt;&amp;lt;&amp;lt;subsystem&amp;gt;&amp;gt;&lt;br&gt;:ConversationService" style="text;html=1;strokeColor=none;fillColor=none;align=left;verticalAlign=middle;whiteSpace=wrap;rounded=0;" parent="1" vertex="1">
          <mxGeometry x="340" y="230" width="160" height="40" as="geometry" />
        </mxCell>
        <mxCell id="7" value="&amp;lt;&amp;lt;coordinator&amp;gt;&amp;gt;&lt;br style=&quot;border-color: var(--border-color);&quot;&gt;: APIGateway" style="shape=process;whiteSpace=wrap;html=1;backgroundOutline=1;size=0.07142857142857142;" parent="1" vertex="1">
          <mxGeometry x="690" y="140" width="140" height="50" as="geometry" />
        </mxCell>
        <mxCell id="8" value="&amp;lt;&amp;lt;client&amp;gt;&amp;gt;&lt;br&gt;&amp;lt;&amp;lt;subsystem&amp;gt;&amp;gt;&lt;br style=&quot;border-color: var(--border-color);&quot;&gt;: Client" style="shape=process;whiteSpace=wrap;html=1;backgroundOutline=1;size=0.07142857142857142;" parent="1" vertex="1">
          <mxGeometry x="690" width="140" height="50" as="geometry" />
        </mxCell>
        <mxCell id="9" value="&amp;lt;&amp;lt;demand&amp;gt;&amp;gt;&lt;br&gt;&amp;lt;&amp;lt;coordinator&amp;gt;&amp;gt;&lt;br style=&quot;border-color: var(--border-color);&quot;&gt;: ConversationController" style="shape=process;whiteSpace=wrap;html=1;backgroundOutline=1;size=0.07142857142857142;" parent="1" vertex="1">
          <mxGeometry x="450" y="300" width="180" height="50" as="geometry" />
        </mxCell>
        <mxCell id="10" value="&amp;lt;&amp;lt;demand&amp;gt;&amp;gt;&lt;br&gt;&amp;lt;&amp;lt;coordinator&amp;gt;&amp;gt;&lt;br style=&quot;border-color: var(--border-color);&quot;&gt;: GroupConversationController" style="shape=process;whiteSpace=wrap;html=1;backgroundOutline=1;size=0.07142857142857142;" parent="1" vertex="1">
          <mxGeometry x="680" y="300" width="200" height="50" as="geometry" />
        </mxCell>
        <mxCell id="11" value="&amp;lt;&amp;lt;demand&amp;gt;&amp;gt;&lt;br&gt;&amp;lt;&amp;lt;coordinator&amp;gt;&amp;gt;&lt;br style=&quot;border-color: var(--border-color);&quot;&gt;: MessageController" style="shape=process;whiteSpace=wrap;html=1;backgroundOutline=1;size=0.07142857142857142;" parent="1" vertex="1">
          <mxGeometry x="920" y="300" width="200" height="50" as="geometry" />
        </mxCell>
        <mxCell id="12" value="" style="endArrow=none;html=1;entryX=0.5;entryY=1;entryDx=0;entryDy=0;exitX=0.5;exitY=0;exitDx=0;exitDy=0;" parent="1" source="9" target="7" edge="1">
          <mxGeometry width="50" height="50" relative="1" as="geometry">
            <mxPoint x="690" y="330" as="sourcePoint" />
            <mxPoint x="740" y="280" as="targetPoint" />
          </mxGeometry>
        </mxCell>
        <mxCell id="13" value="" style="endArrow=none;html=1;entryX=0.5;entryY=1;entryDx=0;entryDy=0;exitX=0.5;exitY=0;exitDx=0;exitDy=0;" parent="1" source="10" target="7" edge="1">
          <mxGeometry width="50" height="50" relative="1" as="geometry">
            <mxPoint x="550" y="310" as="sourcePoint" />
            <mxPoint x="770" y="200" as="targetPoint" />
          </mxGeometry>
        </mxCell>
        <mxCell id="14" value="" style="endArrow=none;html=1;exitX=0.5;exitY=0;exitDx=0;exitDy=0;" parent="1" source="11" edge="1">
          <mxGeometry width="50" height="50" relative="1" as="geometry">
            <mxPoint x="790" y="310" as="sourcePoint" />
            <mxPoint x="760" y="190" as="targetPoint" />
          </mxGeometry>
        </mxCell>
        <mxCell id="15" value="&amp;lt;&amp;lt;demand&amp;gt;&amp;gt;&lt;br&gt;&amp;lt;&amp;lt;coordinator&amp;gt;&amp;gt;&lt;br style=&quot;border-color: var(--border-color);&quot;&gt;: Mediator" style="shape=process;whiteSpace=wrap;html=1;backgroundOutline=1;size=0.07142857142857142;" parent="1" vertex="1">
          <mxGeometry x="690" y="430" width="180" height="50" as="geometry" />
        </mxCell>
        <mxCell id="16" value="" style="endArrow=none;html=1;entryX=0.5;entryY=0;entryDx=0;entryDy=0;exitX=0.5;exitY=1;exitDx=0;exitDy=0;" parent="1" source="9" target="15" edge="1">
          <mxGeometry width="50" height="50" relative="1" as="geometry">
            <mxPoint x="470" y="540" as="sourcePoint" />
            <mxPoint x="690" y="430" as="targetPoint" />
          </mxGeometry>
        </mxCell>
        <mxCell id="17" value="" style="endArrow=none;html=1;entryX=0.5;entryY=0;entryDx=0;entryDy=0;exitX=0.5;exitY=1;exitDx=0;exitDy=0;" parent="1" source="10" target="15" edge="1">
          <mxGeometry width="50" height="50" relative="1" as="geometry">
            <mxPoint x="550" y="360" as="sourcePoint" />
            <mxPoint x="790" y="450" as="targetPoint" />
          </mxGeometry>
        </mxCell>
        <mxCell id="18" value="" style="endArrow=none;html=1;entryX=0.5;entryY=0;entryDx=0;entryDy=0;exitX=0.5;exitY=1;exitDx=0;exitDy=0;" parent="1" source="11" target="15" edge="1">
          <mxGeometry width="50" height="50" relative="1" as="geometry">
            <mxPoint x="790" y="360" as="sourcePoint" />
            <mxPoint x="790" y="450" as="targetPoint" />
          </mxGeometry>
        </mxCell>
        <mxCell id="19" value="&amp;lt;&amp;lt;demand&amp;gt;&amp;gt;&lt;br&gt;&amp;lt;&amp;lt;business logic&amp;gt;&amp;gt;&lt;br style=&quot;border-color: var(--border-color);&quot;&gt;: CommandHandler" style="shape=process;whiteSpace=wrap;html=1;backgroundOutline=1;size=0.07142857142857142;" parent="1" vertex="1">
          <mxGeometry x="570" y="530" width="180" height="50" as="geometry" />
        </mxCell>
        <mxCell id="20" value="&amp;lt;&amp;lt;coordinator&amp;gt;&amp;gt;&lt;br&gt;&amp;lt;&amp;lt;business logic&amp;gt;&amp;gt;&lt;br style=&quot;border-color: var(--border-color);&quot;&gt;: QueryHandler" style="shape=process;whiteSpace=wrap;html=1;backgroundOutline=1;size=0.07142857142857142;" parent="1" vertex="1">
          <mxGeometry x="810" y="530" width="180" height="50" as="geometry" />
        </mxCell>
        <mxCell id="21" value="" style="endArrow=none;html=1;entryX=0.5;entryY=1;entryDx=0;entryDy=0;exitX=0.5;exitY=0;exitDx=0;exitDy=0;" parent="1" source="19" target="15" edge="1">
          <mxGeometry width="50" height="50" relative="1" as="geometry">
            <mxPoint x="480" y="460" as="sourcePoint" />
            <mxPoint x="720" y="540" as="targetPoint" />
          </mxGeometry>
        </mxCell>
        <mxCell id="22" value="" style="endArrow=none;html=1;exitX=0.5;exitY=0;exitDx=0;exitDy=0;" parent="1" source="20" edge="1">
          <mxGeometry width="50" height="50" relative="1" as="geometry">
            <mxPoint x="670" y="540" as="sourcePoint" />
            <mxPoint x="780" y="480" as="targetPoint" />
          </mxGeometry>
        </mxCell>
        <mxCell id="23" value="&amp;lt;&amp;lt;database wrapper&amp;gt;&amp;gt;&lt;br style=&quot;border-color: var(--border-color);&quot;&gt;: ApplicationDbContext" style="shape=process;whiteSpace=wrap;html=1;backgroundOutline=1;size=0.07142857142857142;" parent="1" vertex="1">
          <mxGeometry x="700" y="620" width="180" height="50" as="geometry" />
        </mxCell>
        <mxCell id="24" value="" style="endArrow=none;html=1;entryX=0.5;entryY=1;entryDx=0;entryDy=0;exitX=0.5;exitY=0;exitDx=0;exitDy=0;" parent="1" source="23" target="19" edge="1">
          <mxGeometry width="50" height="50" relative="1" as="geometry">
            <mxPoint x="760" y="630" as="sourcePoint" />
            <mxPoint x="810" y="580" as="targetPoint" />
          </mxGeometry>
        </mxCell>
        <mxCell id="25" value="" style="endArrow=none;html=1;entryX=0.5;entryY=0;entryDx=0;entryDy=0;exitX=0.5;exitY=1;exitDx=0;exitDy=0;" parent="1" source="20" target="23" edge="1">
          <mxGeometry width="50" height="50" relative="1" as="geometry">
            <mxPoint x="800" y="630" as="sourcePoint" />
            <mxPoint x="670" y="590" as="targetPoint" />
          </mxGeometry>
        </mxCell>
        <mxCell id="28" value="" style="endArrow=none;html=1;entryX=0.5;entryY=1;entryDx=0;entryDy=0;exitX=0.5;exitY=0;exitDx=0;exitDy=0;" parent="1" source="7" target="8" edge="1">
          <mxGeometry width="50" height="50" relative="1" as="geometry">
            <mxPoint x="640" y="260" as="sourcePoint" />
            <mxPoint x="690" y="210" as="targetPoint" />
          </mxGeometry>
        </mxCell>
        <mxCell id="29" value="" style="endArrow=classic;html=1;" parent="1" edge="1">
          <mxGeometry width="50" height="50" relative="1" as="geometry">
            <mxPoint x="770" y="80" as="sourcePoint" />
            <mxPoint x="770" y="100" as="targetPoint" />
          </mxGeometry>
        </mxCell>
        <mxCell id="30" value="" style="endArrow=classic;html=1;dashed=1;" parent="1" edge="1">
          <mxGeometry width="50" height="50" relative="1" as="geometry">
            <mxPoint x="750" y="100" as="sourcePoint" />
            <mxPoint x="750" y="80" as="targetPoint" />
          </mxGeometry>
        </mxCell>
        <mxCell id="31" value="2. request" style="text;html=1;strokeColor=none;fillColor=none;align=center;verticalAlign=middle;whiteSpace=wrap;rounded=0;" parent="1" vertex="1">
          <mxGeometry x="790" y="70" width="60" height="30" as="geometry" />
        </mxCell>
        <mxCell id="32" value="1. response" style="text;html=1;strokeColor=none;fillColor=none;align=center;verticalAlign=middle;whiteSpace=wrap;rounded=0;" parent="1" vertex="1">
          <mxGeometry x="660" y="70" width="70" height="30" as="geometry" />
        </mxCell>
        <mxCell id="34" value="" style="endArrow=classic;html=1;exitX=0.375;exitY=0.043;exitDx=0;exitDy=0;exitPerimeter=0;entryX=0.352;entryY=0.064;entryDx=0;entryDy=0;entryPerimeter=0;" parent="1" edge="1">
          <mxGeometry width="50" height="50" relative="1" as="geometry">
            <mxPoint x="645.0000000000001" y="239.21000000000004" as="sourcePoint" />
            <mxPoint x="624.76" y="249.07999999999998" as="targetPoint" />
          </mxGeometry>
        </mxCell>
        <mxCell id="35" value="" style="endArrow=classic;html=1;exitX=0.375;exitY=0.043;exitDx=0;exitDy=0;exitPerimeter=0;entryX=0.523;entryY=0.106;entryDx=0;entryDy=0;entryPerimeter=0;" parent="1" edge="1">
          <mxGeometry width="50" height="50" relative="1" as="geometry">
            <mxPoint x="777.2400000000001" y="245.06000000000003" as="sourcePoint" />
            <mxPoint x="781.2400000000002" y="270.82" as="targetPoint" />
          </mxGeometry>
        </mxCell>
        <mxCell id="37" value="" style="endArrow=classic;html=1;exitX=0.727;exitY=0.106;exitDx=0;exitDy=0;exitPerimeter=0;" parent="1" edge="1">
          <mxGeometry width="50" height="50" relative="1" as="geometry">
            <mxPoint x="920" y="244.91" as="sourcePoint" />
            <mxPoint x="940.24" y="255.09" as="targetPoint" />
          </mxGeometry>
        </mxCell>
        <mxCell id="38" value="" style="endArrow=classic;html=1;exitX=0.636;exitY=0.362;exitDx=0;exitDy=0;exitPerimeter=0;entryX=0.602;entryY=0.383;entryDx=0;entryDy=0;entryPerimeter=0;" parent="1" edge="1">
          <mxGeometry width="50" height="50" relative="1" as="geometry">
            <mxPoint x="920.0000000000001" y="370" as="sourcePoint" />
            <mxPoint x="890.08" y="379.87" as="targetPoint" />
          </mxGeometry>
        </mxCell>
        <mxCell id="39" value="" style="endArrow=classic;html=1;exitX=0.636;exitY=0.362;exitDx=0;exitDy=0;exitPerimeter=0;entryX=0.54;entryY=0.426;entryDx=0;entryDy=0;entryPerimeter=0;" parent="1" edge="1">
          <mxGeometry width="50" height="50" relative="1" as="geometry">
            <mxPoint x="789.76" y="370" as="sourcePoint" />
            <mxPoint x="790" y="400.2199999999999" as="targetPoint" />
          </mxGeometry>
        </mxCell>
        <mxCell id="40" value="" style="endArrow=classic;html=1;entryX=0.477;entryY=0.404;entryDx=0;entryDy=0;entryPerimeter=0;" parent="1" edge="1">
          <mxGeometry width="50" height="50" relative="1" as="geometry">
            <mxPoint x="650.24" y="380" as="sourcePoint" />
            <mxPoint x="680" y="389.88000000000005" as="targetPoint" />
          </mxGeometry>
        </mxCell>
        <mxCell id="42" value="" style="endArrow=classic;html=1;exitX=0.636;exitY=0.362;exitDx=0;exitDy=0;exitPerimeter=0;entryX=0.602;entryY=0.383;entryDx=0;entryDy=0;entryPerimeter=0;" parent="1" edge="1">
          <mxGeometry width="50" height="50" relative="1" as="geometry">
            <mxPoint x="714.96" y="500" as="sourcePoint" />
            <mxPoint x="685.04" y="509.87" as="targetPoint" />
          </mxGeometry>
        </mxCell>
        <mxCell id="43" value="" style="endArrow=classic;html=1;entryX=0.477;entryY=0.404;entryDx=0;entryDy=0;entryPerimeter=0;" parent="1" edge="1">
          <mxGeometry width="50" height="50" relative="1" as="geometry">
            <mxPoint x="840.24" y="500" as="sourcePoint" />
            <mxPoint x="870" y="509.8800000000001" as="targetPoint" />
          </mxGeometry>
        </mxCell>
        <mxCell id="44" value="" style="endArrow=classic;html=1;entryX=0.477;entryY=0.404;entryDx=0;entryDy=0;entryPerimeter=0;" parent="1" edge="1">
          <mxGeometry width="50" height="50" relative="1" as="geometry">
            <mxPoint x="730" y="590" as="sourcePoint" />
            <mxPoint x="759.76" y="599.8800000000001" as="targetPoint" />
          </mxGeometry>
        </mxCell>
        <mxCell id="45" value="" style="endArrow=classic;html=1;exitX=0.636;exitY=0.362;exitDx=0;exitDy=0;exitPerimeter=0;entryX=0.602;entryY=0.383;entryDx=0;entryDy=0;entryPerimeter=0;" parent="1" edge="1">
          <mxGeometry width="50" height="50" relative="1" as="geometry">
            <mxPoint x="839.92" y="590" as="sourcePoint" />
            <mxPoint x="810" y="599.87" as="targetPoint" />
          </mxGeometry>
        </mxCell>
        <mxCell id="46" value="&amp;lt;&amp;lt;client&amp;gt;&amp;gt;&lt;br&gt;&amp;lt;&amp;lt;subsystem&amp;gt;&amp;gt;&lt;br style=&quot;border-color: var(--border-color);&quot;&gt;: RequestClient" style="shape=process;whiteSpace=wrap;html=1;backgroundOutline=1;size=0.07142857142857142;" parent="1" vertex="1">
          <mxGeometry x="1098" width="140" height="50" as="geometry" />
        </mxCell>
        <mxCell id="47" value="&amp;lt;&amp;lt;client&amp;gt;&amp;gt;&lt;br&gt;&amp;lt;&amp;lt;subsystem&amp;gt;&amp;gt;&lt;br style=&quot;border-color: var(--border-color);&quot;&gt;: Producer" style="shape=process;whiteSpace=wrap;html=1;backgroundOutline=1;size=0.07142857142857142;" parent="1" vertex="1">
          <mxGeometry x="1278" width="140" height="50" as="geometry" />
        </mxCell>
        <mxCell id="48" value="&amp;lt;&amp;lt;coordinator&amp;gt;&amp;gt;&lt;br style=&quot;border-color: var(--border-color);&quot;&gt;: RabbitMQ" style="shape=process;whiteSpace=wrap;html=1;backgroundOutline=1;size=0.07142857142857142;" parent="1" vertex="1">
          <mxGeometry x="1198" y="120" width="140" height="50" as="geometry" />
        </mxCell>
        <mxCell id="49" value="" style="endArrow=none;html=1;entryX=0.5;entryY=1;entryDx=0;entryDy=0;exitX=0.5;exitY=0;exitDx=0;exitDy=0;" parent="1" source="48" target="46" edge="1">
          <mxGeometry width="50" height="50" relative="1" as="geometry">
            <mxPoint x="1208" y="140" as="sourcePoint" />
            <mxPoint x="1208" y="50" as="targetPoint" />
          </mxGeometry>
        </mxCell>
        <mxCell id="50" value="27. response" style="text;html=1;strokeColor=none;fillColor=none;align=center;verticalAlign=middle;whiteSpace=wrap;rounded=0;" parent="1" vertex="1">
          <mxGeometry x="1120" y="80" width="78" height="30" as="geometry" />
        </mxCell>
        <mxCell id="51" value="28. Broadcast" style="text;html=1;strokeColor=none;fillColor=none;align=center;verticalAlign=middle;whiteSpace=wrap;rounded=0;" parent="1" vertex="1">
          <mxGeometry x="1328" y="80" width="82" height="30" as="geometry" />
        </mxCell>
        <mxCell id="52" value="&amp;lt;&amp;lt;demand&amp;gt;&amp;gt;&lt;br&gt;&amp;lt;&amp;lt;coordinator&amp;gt;&amp;gt;&lt;br style=&quot;border-color: var(--border-color);&quot;&gt;: Consumer" style="shape=process;whiteSpace=wrap;html=1;backgroundOutline=1;size=0.07142857142857142;" parent="1" vertex="1">
          <mxGeometry x="1168" y="300" width="200" height="50" as="geometry" />
        </mxCell>
        <mxCell id="53" value="" style="endArrow=none;html=1;entryX=0.5;entryY=1;entryDx=0;entryDy=0;exitX=0.5;exitY=0;exitDx=0;exitDy=0;" parent="1" source="52" target="48" edge="1">
          <mxGeometry width="50" height="50" relative="1" as="geometry">
            <mxPoint x="1228" y="240" as="sourcePoint" />
            <mxPoint x="1128" y="170" as="targetPoint" />
          </mxGeometry>
        </mxCell>
        <mxCell id="54" value="" style="endArrow=classic;html=1;exitX=0.828;exitY=0.085;exitDx=0;exitDy=0;exitPerimeter=0;" parent="1" edge="1">
          <mxGeometry width="50" height="50" relative="1" as="geometry">
            <mxPoint x="1279.3600000000004" y="249.95000000000005" as="sourcePoint" />
            <mxPoint x="1279" y="269.9999999999999" as="targetPoint" />
          </mxGeometry>
        </mxCell>
        <mxCell id="55" value="" style="endArrow=none;html=1;entryX=0.557;entryY=1.035;entryDx=0;entryDy=0;exitX=0.5;exitY=0;exitDx=0;exitDy=0;entryPerimeter=0;" parent="1" source="48" target="47" edge="1">
          <mxGeometry width="50" height="50" relative="1" as="geometry">
            <mxPoint x="1278" y="130" as="sourcePoint" />
            <mxPoint x="1178" y="60" as="targetPoint" />
          </mxGeometry>
        </mxCell>
        <mxCell id="56" value="" style="endArrow=classic;html=1;" parent="1" edge="1">
          <mxGeometry width="50" height="50" relative="1" as="geometry">
            <mxPoint x="1219" y="76" as="sourcePoint" />
            <mxPoint x="1238" y="91" as="targetPoint" />
          </mxGeometry>
        </mxCell>
        <mxCell id="57" value="" style="endArrow=classic;html=1;dashed=1;" parent="1" edge="1">
          <mxGeometry width="50" height="50" relative="1" as="geometry">
            <mxPoint x="1222" y="101" as="sourcePoint" />
            <mxPoint x="1202" y="85" as="targetPoint" />
          </mxGeometry>
        </mxCell>
        <mxCell id="58" value="" style="endArrow=classic;html=1;" parent="1" edge="1">
          <mxGeometry width="50" height="50" relative="1" as="geometry">
            <mxPoint x="1328" y="81" as="sourcePoint" />
            <mxPoint x="1308" y="101" as="targetPoint" />
          </mxGeometry>
        </mxCell>
        <mxCell id="59" value="" style="endArrow=none;html=1;exitX=0.5;exitY=1;exitDx=0;exitDy=0;" parent="1" source="52" edge="1">
          <mxGeometry width="50" height="50" relative="1" as="geometry">
            <mxPoint x="1030" y="360.0000000000001" as="sourcePoint" />
            <mxPoint x="780" y="430" as="targetPoint" />
          </mxGeometry>
        </mxCell>
        <mxCell id="60" value="" style="endArrow=classic;html=1;exitX=0.636;exitY=0.362;exitDx=0;exitDy=0;exitPerimeter=0;entryX=0.622;entryY=0.383;entryDx=0;entryDy=0;entryPerimeter=0;" parent="1" edge="1">
          <mxGeometry width="50" height="50" relative="1" as="geometry">
            <mxPoint x="1050.68" y="399.14" as="sourcePoint" />
            <mxPoint x="1010.4200000000001" y="402.01" as="targetPoint" />
          </mxGeometry>
        </mxCell>
        <mxCell id="LsZO1LwERZ1m2fzx5nCH-60" value="" style="endArrow=none;html=1;exitX=0.375;exitY=0.043;exitDx=0;exitDy=0;exitPerimeter=0;entryX=0.352;entryY=0.064;entryDx=0;entryDy=0;entryPerimeter=0;startArrow=classic;startFill=1;endFill=0;dashed=1;" edge="1" parent="1">
          <mxGeometry width="50" height="50" relative="1" as="geometry">
            <mxPoint x="650.2400000000001" y="260.00000000000006" as="sourcePoint" />
            <mxPoint x="630" y="269.87" as="targetPoint" />
          </mxGeometry>
        </mxCell>
        <mxCell id="LsZO1LwERZ1m2fzx5nCH-61" value="" style="endArrow=none;html=1;exitX=0.375;exitY=0.043;exitDx=0;exitDy=0;exitPerimeter=0;entryX=0.523;entryY=0.106;entryDx=0;entryDy=0;entryPerimeter=0;endFill=0;startArrow=classic;startFill=1;dashed=1;" edge="1" parent="1">
          <mxGeometry width="50" height="50" relative="1" as="geometry">
            <mxPoint x="758.0000000000001" y="237.12000000000003" as="sourcePoint" />
            <mxPoint x="762.0000000000002" y="262.88" as="targetPoint" />
          </mxGeometry>
        </mxCell>
        <mxCell id="LsZO1LwERZ1m2fzx5nCH-62" value="" style="endArrow=none;html=1;exitX=0.727;exitY=0.106;exitDx=0;exitDy=0;exitPerimeter=0;startArrow=classic;startFill=1;endFill=0;dashed=1;" edge="1" parent="1">
          <mxGeometry width="50" height="50" relative="1" as="geometry">
            <mxPoint x="899.76" y="259.82" as="sourcePoint" />
            <mxPoint x="920" y="270" as="targetPoint" />
          </mxGeometry>
        </mxCell>
        <mxCell id="LsZO1LwERZ1m2fzx5nCH-63" value="" style="endArrow=none;html=1;entryX=0.477;entryY=0.404;entryDx=0;entryDy=0;entryPerimeter=0;startArrow=classic;startFill=1;endFill=0;dashed=1;" edge="1" parent="1">
          <mxGeometry width="50" height="50" relative="1" as="geometry">
            <mxPoint x="645.12" y="400" as="sourcePoint" />
            <mxPoint x="674.88" y="409.88000000000005" as="targetPoint" />
          </mxGeometry>
        </mxCell>
        <mxCell id="LsZO1LwERZ1m2fzx5nCH-64" value="" style="endArrow=none;html=1;exitX=0.636;exitY=0.362;exitDx=0;exitDy=0;exitPerimeter=0;entryX=0.54;entryY=0.426;entryDx=0;entryDy=0;entryPerimeter=0;startArrow=classic;startFill=1;endFill=0;dashed=1;" edge="1" parent="1">
          <mxGeometry width="50" height="50" relative="1" as="geometry">
            <mxPoint x="770" y="370" as="sourcePoint" />
            <mxPoint x="770.24" y="400.2199999999999" as="targetPoint" />
          </mxGeometry>
        </mxCell>
        <mxCell id="LsZO1LwERZ1m2fzx5nCH-65" value="" style="endArrow=none;html=1;exitX=0.636;exitY=0.362;exitDx=0;exitDy=0;exitPerimeter=0;entryX=0.602;entryY=0.383;entryDx=0;entryDy=0;entryPerimeter=0;startArrow=classic;startFill=1;endFill=0;dashed=1;" edge="1" parent="1">
          <mxGeometry width="50" height="50" relative="1" as="geometry">
            <mxPoint x="959.9200000000001" y="380" as="sourcePoint" />
            <mxPoint x="930" y="389.87" as="targetPoint" />
          </mxGeometry>
        </mxCell>
        <mxCell id="LsZO1LwERZ1m2fzx5nCH-66" value="" style="endArrow=none;html=1;exitX=0.636;exitY=0.362;exitDx=0;exitDy=0;exitPerimeter=0;entryX=0.622;entryY=0.383;entryDx=0;entryDy=0;entryPerimeter=0;dashed=1;endFill=0;startArrow=classic;startFill=1;" edge="1" parent="1">
          <mxGeometry width="50" height="50" relative="1" as="geometry">
            <mxPoint x="1080.26" y="373.57" as="sourcePoint" />
            <mxPoint x="1040" y="376.44" as="targetPoint" />
          </mxGeometry>
        </mxCell>
        <mxCell id="LsZO1LwERZ1m2fzx5nCH-67" value="" style="endArrow=none;html=1;exitX=0.636;exitY=0.362;exitDx=0;exitDy=0;exitPerimeter=0;entryX=0.602;entryY=0.383;entryDx=0;entryDy=0;entryPerimeter=0;endFill=0;dashed=1;startArrow=classic;startFill=1;" edge="1" parent="1">
          <mxGeometry width="50" height="50" relative="1" as="geometry">
            <mxPoint x="724.96" y="510" as="sourcePoint" />
            <mxPoint x="695.04" y="519.87" as="targetPoint" />
          </mxGeometry>
        </mxCell>
        <mxCell id="LsZO1LwERZ1m2fzx5nCH-68" value="" style="endArrow=none;html=1;entryX=0.477;entryY=0.404;entryDx=0;entryDy=0;entryPerimeter=0;startArrow=classic;startFill=1;endFill=0;dashed=1;" edge="1" parent="1">
          <mxGeometry width="50" height="50" relative="1" as="geometry">
            <mxPoint x="820" y="510" as="sourcePoint" />
            <mxPoint x="849.76" y="519.8800000000001" as="targetPoint" />
          </mxGeometry>
        </mxCell>
        <mxCell id="LsZO1LwERZ1m2fzx5nCH-69" value="" style="endArrow=none;html=1;exitX=0.636;exitY=0.362;exitDx=0;exitDy=0;exitPerimeter=0;entryX=0.602;entryY=0.383;entryDx=0;entryDy=0;entryPerimeter=0;dashed=1;endFill=0;startArrow=classic;startFill=1;" edge="1" parent="1">
          <mxGeometry width="50" height="50" relative="1" as="geometry">
            <mxPoint x="870" y="600" as="sourcePoint" />
            <mxPoint x="840.08" y="609.87" as="targetPoint" />
          </mxGeometry>
        </mxCell>
        <mxCell id="LsZO1LwERZ1m2fzx5nCH-70" value="" style="endArrow=none;html=1;entryX=0.477;entryY=0.404;entryDx=0;entryDy=0;entryPerimeter=0;startArrow=classic;startFill=1;endFill=0;dashed=1;" edge="1" parent="1">
          <mxGeometry width="50" height="50" relative="1" as="geometry">
            <mxPoint x="690" y="600" as="sourcePoint" />
            <mxPoint x="719.76" y="609.8800000000001" as="targetPoint" />
          </mxGeometry>
        </mxCell>
        <mxCell id="LsZO1LwERZ1m2fzx5nCH-71" value="3. request" style="text;html=1;strokeColor=none;fillColor=none;align=center;verticalAlign=middle;whiteSpace=wrap;rounded=0;" vertex="1" parent="1">
          <mxGeometry x="560" y="230" width="60" height="30" as="geometry" />
        </mxCell>
        <mxCell id="LsZO1LwERZ1m2fzx5nCH-72" value="4. response" style="text;html=1;strokeColor=none;fillColor=none;align=center;verticalAlign=middle;whiteSpace=wrap;rounded=0;" vertex="1" parent="1">
          <mxGeometry x="630" y="260" width="70" height="30" as="geometry" />
        </mxCell>
        <mxCell id="LsZO1LwERZ1m2fzx5nCH-73" value="6. response" style="text;html=1;strokeColor=none;fillColor=none;align=center;verticalAlign=middle;whiteSpace=wrap;rounded=0;" vertex="1" parent="1">
          <mxGeometry x="690" y="240" width="70" height="30" as="geometry" />
        </mxCell>
        <mxCell id="LsZO1LwERZ1m2fzx5nCH-74" value="8. response" style="text;html=1;strokeColor=none;fillColor=none;align=center;verticalAlign=middle;whiteSpace=wrap;rounded=0;" vertex="1" parent="1">
          <mxGeometry x="850" y="260" width="70" height="30" as="geometry" />
        </mxCell>
        <mxCell id="LsZO1LwERZ1m2fzx5nCH-75" value="10. response" style="text;html=1;strokeColor=none;fillColor=none;align=center;verticalAlign=middle;whiteSpace=wrap;rounded=0;" vertex="1" parent="1">
          <mxGeometry x="590" y="400" width="80" height="30" as="geometry" />
        </mxCell>
        <mxCell id="LsZO1LwERZ1m2fzx5nCH-76" value="12. response" style="text;html=1;strokeColor=none;fillColor=none;align=center;verticalAlign=middle;whiteSpace=wrap;rounded=0;" vertex="1" parent="1">
          <mxGeometry x="690" y="370" width="80" height="30" as="geometry" />
        </mxCell>
        <mxCell id="LsZO1LwERZ1m2fzx5nCH-77" value="14. response" style="text;html=1;strokeColor=none;fillColor=none;align=center;verticalAlign=middle;whiteSpace=wrap;rounded=0;" vertex="1" parent="1">
          <mxGeometry x="900" y="380" width="80" height="30" as="geometry" />
        </mxCell>
        <mxCell id="LsZO1LwERZ1m2fzx5nCH-78" value="16. response" style="text;html=1;strokeColor=none;fillColor=none;align=center;verticalAlign=middle;whiteSpace=wrap;rounded=0;" vertex="1" parent="1">
          <mxGeometry x="1010" y="350" width="80" height="30" as="geometry" />
        </mxCell>
        <mxCell id="LsZO1LwERZ1m2fzx5nCH-79" value="18. response" style="text;html=1;strokeColor=none;fillColor=none;align=center;verticalAlign=middle;whiteSpace=wrap;rounded=0;" vertex="1" parent="1">
          <mxGeometry x="700" y="510" width="80" height="30" as="geometry" />
        </mxCell>
        <mxCell id="LsZO1LwERZ1m2fzx5nCH-80" value="20. response" style="text;html=1;strokeColor=none;fillColor=none;align=center;verticalAlign=middle;whiteSpace=wrap;rounded=0;" vertex="1" parent="1">
          <mxGeometry x="750" y="490" width="80" height="30" as="geometry" />
        </mxCell>
        <mxCell id="LsZO1LwERZ1m2fzx5nCH-81" value="5. request" style="text;html=1;strokeColor=none;fillColor=none;align=center;verticalAlign=middle;whiteSpace=wrap;rounded=0;" vertex="1" parent="1">
          <mxGeometry x="780" y="240" width="60" height="30" as="geometry" />
        </mxCell>
        <mxCell id="LsZO1LwERZ1m2fzx5nCH-82" value="7. request" style="text;html=1;strokeColor=none;fillColor=none;align=center;verticalAlign=middle;whiteSpace=wrap;rounded=0;" vertex="1" parent="1">
          <mxGeometry x="920" y="220" width="60" height="30" as="geometry" />
        </mxCell>
        <mxCell id="LsZO1LwERZ1m2fzx5nCH-83" value="9. request" style="text;html=1;strokeColor=none;fillColor=none;align=center;verticalAlign=middle;whiteSpace=wrap;rounded=0;" vertex="1" parent="1">
          <mxGeometry x="620" y="350" width="60" height="30" as="geometry" />
        </mxCell>
        <mxCell id="LsZO1LwERZ1m2fzx5nCH-84" value="11. request" style="text;html=1;strokeColor=none;fillColor=none;align=center;verticalAlign=middle;whiteSpace=wrap;rounded=0;" vertex="1" parent="1">
          <mxGeometry x="790" y="360" width="70" height="30" as="geometry" />
        </mxCell>
        <mxCell id="LsZO1LwERZ1m2fzx5nCH-85" value="13. request" style="text;html=1;strokeColor=none;fillColor=none;align=center;verticalAlign=middle;whiteSpace=wrap;rounded=0;" vertex="1" parent="1">
          <mxGeometry x="870" y="350" width="70" height="30" as="geometry" />
        </mxCell>
        <mxCell id="LsZO1LwERZ1m2fzx5nCH-86" value="15. request" style="text;html=1;strokeColor=none;fillColor=none;align=center;verticalAlign=middle;whiteSpace=wrap;rounded=0;" vertex="1" parent="1">
          <mxGeometry x="1000" y="400" width="70" height="30" as="geometry" />
        </mxCell>
        <mxCell id="LsZO1LwERZ1m2fzx5nCH-87" value="17. request" style="text;html=1;strokeColor=none;fillColor=none;align=center;verticalAlign=middle;whiteSpace=wrap;rounded=0;" vertex="1" parent="1">
          <mxGeometry x="650" y="480" width="70" height="30" as="geometry" />
        </mxCell>
        <mxCell id="LsZO1LwERZ1m2fzx5nCH-88" value="19. request" style="text;html=1;strokeColor=none;fillColor=none;align=center;verticalAlign=middle;whiteSpace=wrap;rounded=0;" vertex="1" parent="1">
          <mxGeometry x="840" y="480" width="80" height="30" as="geometry" />
        </mxCell>
        <mxCell id="LsZO1LwERZ1m2fzx5nCH-89" value="21. request" style="text;html=1;strokeColor=none;fillColor=none;align=center;verticalAlign=middle;whiteSpace=wrap;rounded=0;" vertex="1" parent="1">
          <mxGeometry x="720" y="570" width="70" height="30" as="geometry" />
        </mxCell>
        <mxCell id="LsZO1LwERZ1m2fzx5nCH-90" value="23. request" style="text;html=1;strokeColor=none;fillColor=none;align=center;verticalAlign=middle;whiteSpace=wrap;rounded=0;" vertex="1" parent="1">
          <mxGeometry x="790" y="570" width="70" height="30" as="geometry" />
        </mxCell>
        <mxCell id="LsZO1LwERZ1m2fzx5nCH-91" value="25. request" style="text;html=1;strokeColor=none;fillColor=none;align=center;verticalAlign=middle;whiteSpace=wrap;rounded=0;" vertex="1" parent="1">
          <mxGeometry x="1278" y="240" width="72" height="30" as="geometry" />
        </mxCell>
        <mxCell id="LsZO1LwERZ1m2fzx5nCH-92" value="26. request" style="text;html=1;strokeColor=none;fillColor=none;align=center;verticalAlign=middle;whiteSpace=wrap;rounded=0;" vertex="1" parent="1">
          <mxGeometry x="1218" y="60" width="72" height="30" as="geometry" />
        </mxCell>
        <mxCell id="LsZO1LwERZ1m2fzx5nCH-93" value="22. response" style="text;html=1;strokeColor=none;fillColor=none;align=center;verticalAlign=middle;whiteSpace=wrap;rounded=0;" vertex="1" parent="1">
          <mxGeometry x="610" y="590" width="80" height="30" as="geometry" />
        </mxCell>
        <mxCell id="LsZO1LwERZ1m2fzx5nCH-94" value="24. response" style="text;html=1;strokeColor=none;fillColor=none;align=center;verticalAlign=middle;whiteSpace=wrap;rounded=0;" vertex="1" parent="1">
          <mxGeometry x="870" y="590" width="80" height="30" as="geometry" />
        </mxCell>
      </root>
    </mxGraphModel>
  </diagram>
</mxfile>
